<svg xmlns="http://www.w3.org/2000/svg" width="76.719" height="80.406" viewBox="0 0 76.719 80.406">
  <defs>
    <style>
      .cls-1 {
        fill: #fff;
        fill-rule: evenodd;
      }
    </style>
  </defs>
  <path id="icon_search.svg" class="cls-1" d="M86.368,88.677a6.979,6.979,0,0,1-9.834-.436L53,62.672a6.9,6.9,0,0,1-1.6-6.457,25.434,25.434,0,0,1-32.85-3.882A25.157,25.157,0,0,1,20.068,16.7a25.3,25.3,0,0,1,36.84,34.459,6.978,6.978,0,0,1,6.344,2.148l23.539,25.57A6.911,6.911,0,0,1,86.368,88.677ZM54.82,36.093A17.436,17.436,0,0,0,50.192,23.45a17.731,17.731,0,0,0-24.944-1.114A17.634,17.634,0,1,0,54.82,36.093Z" transform="translate(-11.906 -10.094)"/>
</svg>
